Coordinates
version=1
nRows=8
nColumns=40
inDegrees=yes

Units are S.I. units (second, meters, Newtons, ...)
If the header above contains a line with 'inDegrees', this indicates whether rotational values are in degrees (yes) or radians (no).

endheader
time	pelvis_tilt	pelvis_list	pelvis_rotation	pelvis_tx	pelvis_ty	pelvis_tz	hip_flexion_r	hip_adduction_r	hip_rotation_r	knee_angle_r	knee_angle_r_beta	ankle_angle_r	subtalar_angle_r	mtp_angle_r	hip_flexion_l	hip_adduction_l	hip_rotation_l	knee_angle_l	knee_angle_l_beta	ankle_angle_l	subtalar_angle_l	mtp_angle_l	lumbar_extension	lumbar_bending	lumbar_rotation	arm_flex_r	arm_add_r	arm_rot_r	elbow_flex_r	pro_sup_r	wrist_flex_r	wrist_dev_r	arm_flex_l	arm_add_l	arm_rot_l	elbow_flex_l	pro_sup_l	wrist_flex_l	wrist_dev_l
      4.78500000	    -36.73680410	     -6.02986841	      6.26198240	      0.08512535	      0.44374026	     -1.15451155	    123.67332628	    -49.14982203	     19.13378383	    110.15405158	      1.92255088	     29.95249497	      3.37631411	      0.00000000	    132.31085002	    -38.83436363	     17.87410758	    104.87468748	      1.83040860	     22.93633352	     15.37556733	      0.00000000	      0.00000000	      0.00000000	      0.00000000	     44.99729081	    -15.00004138	     44.99729081	     75.00017586	     45.00000026	      0.00000000	      0.00000000	     44.99729081	    -15.00004138	     44.99729081	     75.00017586	     45.00000026	      0.00000000	      0.00000000
      4.79000000	    -36.63199665	     -6.03758897	      6.28850519	      0.08540863	      0.44257964	     -1.15463104	    123.78488487	    -49.15327932	     19.38021406	    110.34117994	      1.92581689	     30.00589624	      3.41507121	      0.00000000	    132.40978931	    -38.78614588	     18.04503530	    105.06808145	      1.83378396	     23.04054693	     15.38793986	      0.00000000	      0.00000000	      0.00000000	      0.00000000	     44.99749721	    -15.00003652	     44.99749721	     75.00017585	     45.00000026	      0.00000000	      0.00000000	     44.99749721	    -15.00003652	     44.99749721	     75.00017585	     45.00000026	      0.00000000	      0.00000000
      4.79500000	    -36.53735781	     -6.07024987	      6.30035060	      0.08565885	      0.44145184	     -1.15477117	    123.85982404	    -49.15749528	     19.56702674	    110.51096442	      1.92878019	     30.05792995	      3.42910648	      0.00000000	    132.54555891	    -38.72692493	     18.24935556	    105.25887225	      1.83711389	     23.11852641	     15.38771291	      0.00000000	      0.00000000	      0.00000000	      0.00000000	     44.99767729	    -15.00003246	     44.99767729	     75.00017585	     45.00000026	      0.00000000	      0.00000000	     44.99767729	    -15.00003246	     44.99767729	     75.00017585	     45.00000026	      0.00000000	      0.00000000
      4.80000000	    -36.46774505	     -6.08993146	      6.31158181	      0.08586739	      0.44032198	     -1.15489039	    123.97728951	    -49.15638368	     19.76826317	    110.67605945	      1.93166164	     30.10311811	      3.43818087	      0.00000000	    132.68545492	    -38.67711546	     18.42577834	    105.43693299	      1.84022163	     23.19006658	     15.38944358	      0.00000000	      0.00000000	      0.00000000	      0.00000000	     44.99779201	    -15.00002990	     44.99779201	     75.00017585	     45.00000026	      0.00000000	      0.00000000	     44.99779201	    -15.00002990	     44.99779201	     75.00017585	     45.00000026	      0.00000000	      0.00000000
      4.80500000	    -36.31864232	     -6.15925912	      6.28730677	      0.08618461	      0.43940531	     -1.15498668	    123.87439309	    -49.16948298	     19.81663700	    110.82989839	      1.93434664	     30.22040560	      3.53928495	      0.00000000	    132.82086681	    -38.65419360	     18.69753539	    105.61953705	      1.84340868	     23.28951222	     15.42816855	      0.00000000	      0.00000000	      0.00000000	      0.00000000	     44.99786958	    -15.00002822	     44.99786958	     75.00017585	     45.00000026	      0.00000000	      0.00000000	     44.99786958	    -15.00002822	     44.99786958	     75.00017585	     45.00000026	      0.00000000	      0.00000000
      4.81000000	    -36.28249357	     -6.18342264	      6.29379273	      0.08633428	      0.43829591	     -1.15508736	    124.01699808	    -49.16384035	     20.00174056	    110.98091685	      1.93698241	     30.23164133	      3.51963974	      0.00000000	    132.99209996	    -38.60839728	     18.86429306	    105.78267042	      1.84625589	     23.30965189	     15.44274901	      0.00000000	      0.00000000	      0.00000000	      0.00000000	     44.99793858	    -15.00002675	     44.99793858	     75.00017585	     45.00000026	      0.00000000	      0.00000000	     44.99793858	    -15.00002675	     44.99793858	     75.00017585	     45.00000026	      0.00000000	      0.00000000
      4.81500000	    -36.15590308	     -6.18499867	      6.29505418	      0.08660165	      0.43746043	     -1.15513889	    124.03692750	    -49.16804506	     20.16522811	    111.12894804	      1.93956604	     30.35196898	      3.66532973	      0.00000000	    133.04739104	    -38.62998645	     19.01010396	    105.93687920	      1.84894734	     23.42499920	     15.50344499	      0.00000000	      0.00000000	      0.00000000	      0.00000000	     44.99800768	    -15.00002532	     44.99800768	     75.00017585	     45.00000026	      0.00000000	      0.00000000	     44.99800768	    -15.00002532	     44.99800768	     75.00017585	     45.00000026	      0.00000000	      0.00000000
      4.82000000	    -36.24020563	     -6.13262102	      6.33813011	      0.08658031	      0.43608786	     -1.15526719	    124.49702344	    -49.15119888	     20.55783876	    111.28404097	      1.94227292	     30.27476193	      3.57864587	      0.00000000	    133.24366700	    -38.57884152	     19.03786699	    106.09181844	      1.85165154	     23.45443208	     15.46845852	      0.00000000	      0.00000000	      0.00000000	      0.00000000	     44.99816379	    -15.00002219	     44.99816379	     75.00017585	     45.00000026	      0.00000000	      0.00000000	     44.99816379	    -15.00002219	     44.99816379	     75.00017585	     45.00000026	      0.00000000	      0.00000000
